<svg width="41" height="40" viewBox="0 0 41 40" fill="none" xmlns="http://www.w3.org/2000/svg">
<path d="M6.05742 32.0917C10.4291 29.6207 15.367 28.3257 20.3887 28.3333C25.597 28.3333 30.4866 29.6979 34.7199 32.0917M26.6387 15.8333C26.6387 17.4909 25.9802 19.0806 24.8081 20.2528C23.636 21.4249 22.0463 22.0833 20.3887 22.0833C18.7311 22.0833 17.1414 21.4249 15.9693 20.2528C14.7972 19.0806 14.1387 17.4909 14.1387 15.8333C14.1387 14.1757 14.7972 12.586 15.9693 11.4139C17.1414 10.2418 18.7311 9.58333 20.3887 9.58333C22.0463 9.58333 23.636 10.2418 24.8081 11.4139C25.9802 12.586 26.6387 14.1757 26.6387 15.8333ZM39.1387 20C39.1387 22.4623 38.6537 24.9005 37.7114 27.1753C36.7691 29.4502 35.388 31.5172 33.6469 33.2582C31.9058 34.9993 29.8388 36.3805 27.564 37.3227C25.2891 38.265 22.851 38.75 20.3887 38.75C17.9264 38.75 15.4882 38.265 13.2134 37.3227C10.9385 36.3805 8.87152 34.9993 7.13042 33.2582C5.38932 31.5172 4.00821 29.4502 3.06593 27.1753C2.12365 24.9005 1.63867 22.4623 1.63867 20C1.63867 15.0272 3.61411 10.2581 7.13042 6.74175C10.6467 3.22544 15.4159 1.25 20.3887 1.25C25.3615 1.25 30.1306 3.22544 33.6469 6.74175C37.1632 10.2581 39.1387 15.0272 39.1387 20Z" stroke="black" stroke-width="2" stroke-linecap="round" stroke-linejoin="round"/>
</svg>
