<svg width="51" height="50" viewBox="0 0 51 50" fill="none" xmlns="http://www.w3.org/2000/svg">
<g clip-path="url(#clip0_368_4211)">
<path d="M0.388672 4.6875C0.388672 4.2731 0.553292 3.87567 0.846318 3.58265C1.13934 3.28962 1.53677 3.125 1.95117 3.125H6.63867C6.98721 3.1251 7.3257 3.24172 7.60033 3.45633C7.87496 3.67093 8.06995 3.9712 8.1543 4.30937L9.41992 9.375H45.7012C45.9306 9.37521 46.1572 9.42595 46.3648 9.5236C46.5724 9.62125 46.7559 9.76342 46.9024 9.94001C47.0489 10.1166 47.1546 10.3233 47.2122 10.5454C47.2698 10.7675 47.2778 10.9995 47.2355 11.225L42.548 36.225C42.481 36.5831 42.291 36.9064 42.0108 37.1392C41.7307 37.3721 41.3779 37.4997 41.0137 37.5H12.8887C12.5244 37.4997 12.1717 37.3721 11.8915 37.1392C11.6113 36.9064 11.4213 36.5831 11.3543 36.225L6.66992 11.2719L5.41992 6.25H1.95117C1.53677 6.25 1.13934 6.08538 0.846318 5.79235C0.553292 5.49933 0.388672 5.1019 0.388672 4.6875ZM10.0824 12.5L14.1855 34.375H39.7168L43.8199 12.5H10.0824ZM16.0137 37.5C14.3561 37.5 12.7664 38.1585 11.5943 39.3306C10.4222 40.5027 9.76367 42.0924 9.76367 43.75C9.76367 45.4076 10.4222 46.9973 11.5943 48.1694C12.7664 49.3415 14.3561 50 16.0137 50C17.6713 50 19.261 49.3415 20.4331 48.1694C21.6052 46.9973 22.2637 45.4076 22.2637 43.75C22.2637 42.0924 21.6052 40.5027 20.4331 39.3306C19.261 38.1585 17.6713 37.5 16.0137 37.5ZM37.8887 37.5C36.2311 37.5 34.6414 38.1585 33.4693 39.3306C32.2972 40.5027 31.6387 42.0924 31.6387 43.75C31.6387 45.4076 32.2972 46.9973 33.4693 48.1694C34.6414 49.3415 36.2311 50 37.8887 50C39.5463 50 41.136 49.3415 42.3081 48.1694C43.4802 46.9973 44.1387 45.4076 44.1387 43.75C44.1387 42.0924 43.4802 40.5027 42.3081 39.3306C41.136 38.1585 39.5463 37.5 37.8887 37.5ZM16.0137 40.625C16.8425 40.625 17.6373 40.9542 18.2234 41.5403C18.8094 42.1263 19.1387 42.9212 19.1387 43.75C19.1387 44.5788 18.8094 45.3737 18.2234 45.9597C17.6373 46.5458 16.8425 46.875 16.0137 46.875C15.1849 46.875 14.39 46.5458 13.804 45.9597C13.2179 45.3737 12.8887 44.5788 12.8887 43.75C12.8887 42.9212 13.2179 42.1263 13.804 41.5403C14.39 40.9542 15.1849 40.625 16.0137 40.625ZM37.8887 40.625C38.7175 40.625 39.5123 40.9542 40.0984 41.5403C40.6844 42.1263 41.0137 42.9212 41.0137 43.75C41.0137 44.5788 40.6844 45.3737 40.0984 45.9597C39.5123 46.5458 38.7175 46.875 37.8887 46.875C37.0599 46.875 36.265 46.5458 35.679 45.9597C35.0929 45.3737 34.7637 44.5788 34.7637 43.75C34.7637 42.9212 35.0929 42.1263 35.679 41.5403C36.265 40.9542 37.0599 40.625 37.8887 40.625Z" fill="black"/>
</g>
<defs>
<clipPath id="clip0_368_4211">
<rect width="50" height="50" fill="white" transform="translate(0.388672)"/>
</clipPath>
</defs>
</svg>
