<svg width="14" height="18" viewBox="0 0 14 18" fill="none" xmlns="http://www.w3.org/2000/svg">
<path d="M10.7127 0.505859H7.53457C6.80332 0.505859 6.18457 1.12461 6.18457 1.85586V3.79648C6.18457 4.13398 6.46582 4.41523 6.80332 4.41523C7.14082 4.41523 7.45019 4.13398 7.45019 3.79648V1.82773C7.45019 1.77148 7.47832 1.74336 7.53457 1.74336H10.7127C11.3877 1.74336 11.9221 2.27773 11.9221 2.95273V15.0184C11.9221 15.6934 11.3877 16.2277 10.7127 16.2277H7.53457C7.47832 16.2277 7.45019 16.1996 7.45019 16.1434V14.2027C7.45019 13.8652 7.16894 13.584 6.80332 13.584C6.43769 13.584 6.18457 13.8652 6.18457 14.2027V16.1434C6.18457 16.8746 6.80332 17.4934 7.53457 17.4934H10.7127C12.0908 17.4934 13.1877 16.3684 13.1877 15.0184V2.98086C13.1877 1.60273 12.0627 0.505859 10.7127 0.505859Z" fill="#C73D3D"/>
<path d="M8.43457 8.54883L5.62207 5.68008C5.36895 5.42695 4.97519 5.42695 4.72207 5.68008C4.46895 5.9332 4.46895 6.32695 4.72207 6.58008L6.46582 8.35195H1.45957C1.12207 8.35195 0.84082 8.6332 0.84082 8.9707C0.84082 9.3082 1.12207 9.58945 1.45957 9.58945H6.49395L4.72207 11.3895C4.46895 11.6426 4.46895 12.0363 4.72207 12.2895C4.83457 12.402 5.00332 12.4582 5.17207 12.4582C5.34082 12.4582 5.50957 12.402 5.62207 12.2613L8.43457 9.39258C8.68769 9.1957 8.68769 8.80195 8.43457 8.54883Z" fill="#C73D3D"/>
</svg>
