<svg width="90" height="90" viewBox="0 0 90 90" fill="none" xmlns="http://www.w3.org/2000/svg">
<path d="M32.25 61.5C28.9754 64.5185 24.6603 66.1535 20.2077 66.0629C15.7551 65.9723 11.5101 64.1631 8.36101 61.014C5.21189 57.8649 3.40275 53.6199 3.31217 49.1673C3.22158 44.7147 4.85659 40.3996 7.87502 37.125L37.125 7.87502C40.3996 4.85659 44.7147 3.22158 49.1673 3.31217C53.6199 3.40275 57.8649 5.21189 61.014 8.36101C64.1631 11.5101 65.9723 15.7551 66.0629 20.2077C66.1535 24.6603 64.5185 28.9754 61.5 32.25M22.4963 22.4963L38.4338 38.4338" stroke="black" stroke-width="4" stroke-linecap="round" stroke-linejoin="round"/>
<path d="M64.6876 56.25V73.125M56.2501 64.6875H73.1251M87.1876 59.0625C87.2002 65.6118 84.977 71.9693 80.8857 77.0835C76.7943 82.1977 71.0799 85.7622 64.6876 87.1875C58.2952 85.7622 52.5808 82.1977 48.4894 77.0835C44.3981 71.9693 42.1749 65.6118 42.1876 59.0625V50.625C42.1876 49.1332 42.7802 47.7024 43.8351 46.6475C44.89 45.5926 46.3207 45 47.8126 45H81.5626C83.0544 45 84.4851 45.5926 85.54 46.6475C86.5949 47.7024 87.1876 49.1332 87.1876 50.625V59.0625Z" stroke="black" stroke-width="4" stroke-linecap="round" stroke-linejoin="round"/>
</svg>
