<svg width="49" height="48" viewBox="0 0 49 48" fill="none" xmlns="http://www.w3.org/2000/svg">
<g clip-path="url(#clip0_257_65)">
<path fill-rule="evenodd" clip-rule="evenodd" d="M27.26 25.27L32.99 31L31.5 32.49L25.77 26.76C24.7 27.53 23.41 28 22 28C18.41 28 15.5 25.09 15.5 21.5C15.5 17.91 18.41 15 22 15C25.59 15 28.5 17.91 28.5 21.5C28.5 22.91 28.03 24.2 27.26 25.27ZM22 17C19.51 17 17.5 19.01 17.5 21.5C17.5 23.99 19.51 26 22 26C24.49 26 26.5 23.99 26.5 21.5C26.5 19.01 24.49 17 22 17Z" fill="#B5B5B5"/>
</g>
<defs>
<clipPath id="clip0_257_65">
<rect x="4.5" y="4" width="40" height="40" rx="20" fill="white"/>
</clipPath>
</defs>
</svg>
