<svg width="69" height="90" viewBox="0 0 69 90" fill="none" xmlns="http://www.w3.org/2000/svg">
<g clip-path="url(#clip0_196_8211)">
<path d="M59.85 10.6952H50.1863V15.2739H59.8763C62.3325 15.2739 64.3238 17.2652 64.3238 19.7214V81.0002C64.3238 83.4602 62.3288 85.4514 59.8725 85.4514H9.75377C9.16922 85.4514 8.5904 85.3363 8.05035 85.1126C7.5103 84.8889 7.0196 84.561 6.60626 84.1477C6.19292 83.7343 5.86505 83.2436 5.64135 82.7036C5.41765 82.1635 5.30252 81.5847 5.30252 81.0002V19.7214C5.30252 17.2614 7.29752 15.2702 9.75377 15.2702H19.4438V10.6952H9.78002C7.38244 10.6961 5.08334 11.649 3.38799 13.3444C1.69264 15.0397 0.739763 17.3388 0.73877 19.7364V80.9589C0.740757 83.3558 1.69407 85.654 3.38931 87.3485C5.08455 89.0431 7.38309 89.9954 9.78002 89.9964H59.8463C62.2439 89.9954 64.5429 89.0425 66.2383 87.3472C67.9336 85.6518 68.8865 83.3527 68.8875 80.9552V19.7327C68.8865 17.3351 67.9336 15.036 66.2383 13.3406C64.5429 11.6453 62.2439 10.6924 59.8463 10.6914L59.85 10.6952Z" fill="black"/>
<path d="M48.0187 8.34375H43.0725C43.0725 6.13085 42.1934 4.00858 40.6287 2.44383C39.0639 0.879071 36.9416 0 34.7287 0C32.5158 0 30.3936 0.879071 28.8288 2.44383C27.2641 4.00858 26.385 6.13085 26.385 8.34375H21.4725V19.8075H47.9962V8.34375H48.0187ZM39.5512 8.34375H29.9137V8.22375C29.9137 6.94474 30.4218 5.71812 31.3262 4.81373C32.2306 3.90933 33.4572 3.40125 34.7362 3.40125C36.0152 3.40125 37.2419 3.90933 38.1463 4.81373C39.0506 5.71812 39.5587 6.94474 39.5587 8.22375V8.35125V8.34375H39.5512ZM23.0512 31.92H58.5187V36.3075H23.0512V31.92ZM23.0512 50.2875H58.5187V54.675H23.0512V50.2875ZM23.0512 68.4375H58.5187V72.8475H23.0512V68.4375ZM10.605 29.0887H20.655V39.1388H10.605V29.0887ZM10.605 47.4562H20.655V57.5062H10.605V47.4562ZM10.605 65.6137H20.655V75.6637H10.605V65.6137Z" fill="black"/>
</g>
<defs>
<clipPath id="clip0_196_8211">
<rect width="67.5" height="90" fill="white" transform="translate(0.75)"/>
</clipPath>
</defs>
</svg>
