<svg width="17" height="17" viewBox="0 0 17 17" fill="none" xmlns="http://www.w3.org/2000/svg">
<path d="M7.16634 3.16762H2.99967C2.55765 3.16762 2.13372 3.34321 1.82116 3.65577C1.5086 3.96833 1.33301 4.39225 1.33301 4.83428V14.0009C1.33301 14.443 1.5086 14.8669 1.82116 15.1795C2.13372 15.492 2.55765 15.6676 2.99967 15.6676H12.1663C12.6084 15.6676 13.0323 15.492 13.3449 15.1795C13.6574 14.8669 13.833 14.443 13.833 14.0009V9.83428M12.6547 1.98928C12.8084 1.8301 12.9923 1.70313 13.1957 1.61578C13.399 1.52843 13.6177 1.48245 13.839 1.48053C14.0603 1.47861 14.2798 1.52078 14.4846 1.60458C14.6894 1.68838 14.8755 1.81214 15.032 1.96862C15.1885 2.12511 15.3122 2.3112 15.396 2.51603C15.4798 2.72085 15.522 2.94032 15.5201 3.16162C15.5182 3.38292 15.4722 3.60162 15.3848 3.80496C15.2975 4.0083 15.1705 4.1922 15.0113 4.34595L7.85634 11.5009H5.49967V9.14428L12.6547 1.98928Z" stroke="#2E65F3" stroke-width="1.4" stroke-linecap="round" stroke-linejoin="round"/>
</svg>
