<svg width="1625" height="1576" viewBox="0 0 1625 1576" fill="none" xmlns="http://www.w3.org/2000/svg">
<path opacity="0.0526316" d="M126.185 1271.88C160.454 1317.47 269.979 1393.76 433.935 1334.2C638.879 1259.74 718.142 1062.38 901.058 960.046C1036.06 884.515 1398.83 771.139 1607.42 896.421" stroke="#16B056" stroke-width="0.3"/>
<path opacity="0.105263" d="M92.3842 1176.3C121.699 1225.22 222.651 1312.55 391.934 1270.45C603.538 1217.82 702.997 1029.83 895.608 947.171C1037.77 886.166 1410.4 811.331 1604.75 957.73" stroke="#16B056" stroke-width="0.3"/>
<path opacity="0.157895" d="M66.8486 1079.43C90.8893 1131.15 182.16 1228.55 354.916 1204.38C570.862 1174.16 689.427 997.588 889.622 935.52C1037.38 889.709 1415.79 854.234 1593.78 1020.15" stroke="#16B056" stroke-width="0.3"/>
<path opacity="0.210526" d="M49.6677 982.149C68.1705 1036.1 148.76 1142.5 323.097 1136.52C541.019 1129.04 677.391 965.828 882.978 925.026C1034.72 894.911 1414.76 899.184 1574.43 1082.79" stroke="#16B056" stroke-width="0.3"/>
<path opacity="0.263158" d="M40.8396 885.32C53.6018 940.908 122.628 1055.15 296.636 1067.42C514.145 1082.76 666.83 934.704 875.555 915.615C1029.61 901.526 1407.13 945.501 1546.73 1144.8" stroke="#16B056" stroke-width="0.3"/>
<path opacity="0.315789" d="M40.271 789.82C47.1527 846.437 103.859 967.271 275.631 997.664C490.345 1035.66 657.671 904.367 867.248 907.2C1021.93 909.291 1392.78 992.487 1510.79 1205.28" stroke="#16B056" stroke-width="0.3"/>
<path opacity="0.368421" d="M47.7772 696.503C48.7031 753.529 92.4683 879.628 260.122 927.81C469.689 988.037 649.821 874.958 857.954 899.682C1011.57 917.931 1371.7 1039.44 1466.81 1263.4" stroke="#16B056" stroke-width="0.3"/>
<path opacity="0.421053" d="M63.0864 606.202C58.0462 663.013 88.3907 792.996 250.09 858.439C452.213 940.241 643.179 846.611 847.587 892.955C998.455 927.161 1343.91 1085.64 1415.09 1318.32" stroke="#16B056" stroke-width="0.3"/>
<path opacity="0.473684" d="M85.8403 519.717C74.8894 575.69 91.4808 708.133 245.453 790.119C437.919 892.601 637.625 819.444 836.069 886.902C982.536 936.69 1309.53 1130.41 1356 1369.26" stroke="#16B056" stroke-width="0.3"/>
<path opacity="0.526316" d="M115.599 437.804C98.8577 492.325 101.514 625.777 246.073 723.408C426.772 845.447 633.032 793.566 823.337 881.397C963.797 946.223 1268.75 1173.07 1290 1415.46" stroke="#16B056" stroke-width="0.3"/>
<path opacity="0.578947" d="M151.848 361.168C129.499 413.641 118.191 546.639 251.753 658.846C418.706 799.105 629.258 769.069 809.34 876.311C942.255 955.463 1221.82 1212.94 1217.62 1456.23" stroke="#16B056" stroke-width="0.3"/>
<path opacity="0.631579" d="M193.997 290.464C166.285 340.314 141.138 471.401 262.239 596.955C413.616 753.896 626.155 746.033 794.041 871.511C917.953 964.124 1169.08 1249.41 1139.47 1490.93" stroke="#16B056" stroke-width="0.3"/>
<path opacity="0.684211" d="M241.395 226.273C208.625 272.953 169.913 400.693 277.227 538.218C411.37 710.123 623.566 724.519 777.416 866.859C890.969 971.916 1110.9 1281.89 1056.21 1518.99" stroke="#16B056" stroke-width="0.3"/>
<path opacity="0.736842" d="M293.334 169.106C255.864 212.105 204.011 335.099 296.362 483.088C411.801 668.073 621.33 704.57 759.459 862.212C861.408 978.564 1047.73 1309.83 968.555 1539.91" stroke="#16B056" stroke-width="0.3"/>
<path opacity="0.789474" d="M349.053 119.404C307.294 158.251 242.868 275.151 319.245 431.982C414.715 628.021 619.281 686.22 740.175 857.437C829.404 983.807 980.078 1332.73 877.287 1553.28" stroke="#16B056" stroke-width="0.3"/>
<path opacity="0.842105" d="M407.751 77.5176C362.16 111.786 285.868 221.312 345.433 385.267C419.889 590.211 617.251 669.475 719.586 852.39C795.116 987.396 908.492 1350.16 783.21 1558.76" stroke="#16B056" stroke-width="0.3"/>
<path opacity="0.894737" d="M468.597 43.7166C419.673 73.0318 332.351 173.983 374.451 343.266C427.077 554.87 615.072 654.33 697.727 846.94C758.732 989.101 833.567 1361.73 687.167 1556.09" stroke="#16B056" stroke-width="0.3"/>
<path opacity="0.947368" d="M530.731 18.1809C479.011 42.2215 381.615 133.492 405.79 306.249C436.008 522.194 612.578 640.76 674.646 840.955C720.457 988.714 755.932 1367.12 590.019 1545.11" stroke="#16B056" stroke-width="0.3"/>
<path d="M593.284 1C539.335 19.5028 432.932 100.093 438.916 274.43C446.396 492.351 609.605 628.723 650.407 834.31C680.522 986.048 676.249 1366.09 492.639 1525.77" stroke="#16B056" stroke-width="0.3"/>
</svg>