<svg width="25" height="25" viewBox="0 0 25 25" fill="none" xmlns="http://www.w3.org/2000/svg">
<path fill-rule="evenodd" clip-rule="evenodd" d="M22.0996 12.1895C22.0996 17.7123 17.6225 22.1895 12.0996 22.1895C6.57676 22.1895 2.09961 17.7123 2.09961 12.1895C2.09961 6.66661 6.57676 2.18945 12.0996 2.18945C17.6225 2.18945 22.0996 6.66661 22.0996 12.1895ZM17.363 10.3354C17.7197 9.91379 17.6672 9.28281 17.2456 8.92607C16.8239 8.56932 16.193 8.6219 15.8362 9.04351L11.0382 14.7139L8.80672 12.4823C8.41619 12.0918 7.78303 12.0918 7.3925 12.4823C7.00198 12.8729 7.00198 13.506 7.3925 13.8966L10.3925 16.8966C10.5902 17.0943 10.8618 17.2002 11.1412 17.1886C11.4206 17.177 11.6824 17.0489 11.863 16.8354L17.363 10.3354Z" fill="#5FD754"/>
</svg>
