<svg width="48" height="48" viewBox="0 0 48 48" fill="none" xmlns="http://www.w3.org/2000/svg">
<path fill-rule="evenodd" clip-rule="evenodd" d="M23.9998 43.2008C29.092 43.2008 33.9756 41.1779 37.5763 37.5772C41.177 33.9765 43.1998 29.0929 43.1998 24.0008C43.1998 18.9086 41.177 14.025 37.5763 10.4243C33.9756 6.82363 29.092 4.80078 23.9998 4.80078C18.9076 4.80078 14.0241 6.82363 10.4234 10.4243C6.82266 14.025 4.7998 18.9086 4.7998 24.0008C4.7998 29.0929 6.82266 33.9765 10.4234 37.5772C14.0241 41.1779 18.9076 43.2008 23.9998 43.2008ZM32.8966 20.8976C33.3338 20.4449 33.5757 19.8387 33.5702 19.2094C33.5648 18.5801 33.3123 17.9782 32.8674 17.5332C32.4224 17.0882 31.8204 16.8358 31.1912 16.8304C30.5619 16.8249 29.9557 17.0668 29.503 17.504L21.5998 25.4072L18.4966 22.304C18.044 21.8668 17.4377 21.6249 16.8084 21.6304C16.1792 21.6358 15.5772 21.8882 15.1322 22.3332C14.6873 22.7782 14.4349 23.3801 14.4294 24.0094C14.4239 24.6387 14.6658 25.2449 15.103 25.6976L19.903 30.4976C20.3531 30.9475 20.9634 31.2003 21.5998 31.2003C22.2362 31.2003 22.8465 30.9475 23.2966 30.4976L32.8966 20.8976Z" fill="#249F5D"/>
</svg>
