<svg width="113" height="112" viewBox="0 0 113 112" fill="none" xmlns="http://www.w3.org/2000/svg">
<path fill-rule="evenodd" clip-rule="evenodd" d="M39.3475 21.7604L39.4758 21.2004C39.7208 20.1598 40.1222 18.6291 40.9505 17.1218C41.7952 15.5864 43.1042 14.0301 45.1575 13.0058C47.2038 11.9861 49.7682 11.6058 52.9392 12.0258C56.4392 12.4924 63.4695 13.6498 69.6808 16.8091C75.9272 19.9871 81.7792 25.4541 81.7792 34.5588C81.7792 39.2628 79.9592 44.3098 78.1952 47.5998C77.3482 49.1818 76.3425 50.6938 75.3345 51.5081C75.1035 51.6948 74.7745 51.9281 74.3662 52.0914C73.2461 55.7724 71.0165 59.0176 67.9821 61.3833C64.9477 63.7491 61.2567 65.1199 57.4137 65.3083C53.5707 65.4967 49.7633 64.4936 46.5121 62.4361C43.2608 60.3786 40.7243 57.3672 39.2495 53.8134L39.1935 53.8228L38.3652 52.8171L38.3628 52.8124L38.3582 52.8078L38.3465 52.7914L38.3068 52.7448C38.1072 52.4962 37.915 52.2418 37.7305 51.9818C37.2267 51.2829 36.7518 50.5637 36.3072 49.8258C35.2105 48.0104 33.8875 45.4251 33.0405 42.4081C32.1958 39.3911 31.8085 35.8538 32.6952 32.2044C33.5585 28.6531 35.5955 25.1578 39.2845 22.0358L39.3475 21.7604ZM43.2675 51.2491C44.2795 54.1593 46.2228 56.6547 48.7965 58.3487C51.3702 60.0427 54.4306 60.8408 57.5038 60.6194C60.577 60.398 63.4915 59.1695 65.7958 57.1241C68.1001 55.0788 69.6657 52.3306 70.2502 49.3054L70.5138 49.3941C70.5046 49.2621 70.4999 49.1298 70.4998 48.9974C70.4998 45.1358 69.9632 42.4408 69.4638 40.7608C69.3663 40.4338 69.2582 40.11 69.1395 39.7901L69.0438 39.7948H68.9505C67.2057 39.8324 65.4615 39.6996 63.7425 39.3981C59.7362 38.7214 54.3112 37.0321 47.9225 33.1191C47.7825 33.4318 47.6425 33.7841 47.5025 34.1761C47.0452 35.4711 46.6695 37.0088 46.3452 38.6328C46.0582 40.0631 45.8225 41.5028 45.5985 42.8514L45.5122 43.3834C45.2718 44.8301 45.0315 46.2511 44.7515 47.2801C44.2615 49.0674 43.7622 50.3368 43.2675 51.2468V51.2491ZM40.0008 46.9021C38.9469 45.0931 38.1194 43.1614 37.5368 41.1504C36.8392 38.6631 36.5825 35.9704 37.2312 33.3081C37.8612 30.7181 39.3848 27.9951 42.5185 25.4144C43.0832 25.0318 43.3398 24.5184 43.4098 24.3808V24.3784C43.5324 24.1261 43.6308 23.8629 43.7038 23.5921C43.7785 23.3261 43.8602 22.9621 43.9372 22.6354L44.0188 22.2691C44.2405 21.3288 44.5275 20.3044 45.0408 19.3688C45.5402 18.4634 46.2238 17.6888 47.2412 17.1824C48.2632 16.6714 49.8452 16.3214 52.3232 16.6528C55.7135 17.1031 62.0905 18.1834 67.5645 20.9694C73.0012 23.7344 77.1125 27.9204 77.1125 34.5588C77.1125 37.6154 76.0858 41.0921 74.8492 43.8338C74.6158 42.0464 74.2798 40.5858 73.9345 39.4284C73.6938 38.6013 73.3936 37.7926 73.0362 37.0088C72.9014 36.7183 72.7535 36.4341 72.5928 36.1571L72.5532 36.0941L72.5392 36.0708L72.5322 36.0591L72.5275 36.0521L71.6642 34.7128L70.1195 35.0231L70.0868 35.0301L69.8605 35.0604C69.5133 35.0991 69.1645 35.1225 68.8152 35.1304C67.3765 35.1582 65.9386 35.0457 64.5218 34.7944C60.7582 34.1598 55.2282 32.4308 48.5105 27.9578L46.8772 26.8681L45.5262 28.2914C44.4132 29.4628 43.6572 31.0611 43.1042 32.6174C42.5395 34.2158 42.1125 36.0008 41.7695 37.7134C41.4851 39.1709 41.2269 40.6334 40.9948 42.1001L40.9062 42.6228C40.6565 44.1418 40.4535 45.3014 40.2482 46.0528C40.1716 46.3375 40.0891 46.6207 40.0008 46.9021Z" fill="black"/>
<path fill-rule="evenodd" clip-rule="evenodd" d="M42.2993 67.3283C41.8047 66.3437 41.1957 65.128 40.1667 65.3637C27.5573 68.2337 14.5 76.5193 14.5 85.33V98H98.5V85.33C98.5 78.3907 90.3987 71.7757 80.797 67.8767L80.7853 67.8533C80.7747 67.8322 80.7638 67.8112 80.7527 67.7903L80.6757 67.8277C78.1253 66.801 75.47 65.961 72.8333 65.3637C71.6597 65.0953 70.4463 66.71 69.9167 67.7203H42.5C42.4347 67.599 42.3693 67.4637 42.2993 67.3283ZM73.7737 70.4083C74.7933 70.6907 75.8083 71.008 76.8093 71.358C76.8373 72.156 76.7767 73.0987 76.646 74.06C76.513 75.0553 76.3007 76.0384 76.0113 77H72.8333C72.4001 77.0002 71.9755 77.121 71.6071 77.3489C71.2387 77.5768 70.941 77.9028 70.7473 78.2903L68.414 82.957C68.2517 83.2808 68.1671 83.6378 68.1667 84V88.6667C68.1667 89.2855 68.4125 89.879 68.8501 90.3166C69.2877 90.7542 69.8812 91 70.5 91H75.1667V86.3333H72.8333V84.5507L74.2753 81.6667H80.7247L82.1667 84.5507V86.3333H79.8333V91H84.5C85.1188 91 85.7123 90.7542 86.1499 90.3166C86.5875 89.879 86.8333 89.2855 86.8333 88.6667V84C86.8329 83.6378 86.7483 83.2808 86.586 82.957L84.2527 78.2903C84.059 77.9028 83.7613 77.5768 83.3929 77.3489C83.0245 77.121 82.5999 77.0002 82.1667 77H80.846C81.1343 75.7651 81.3278 74.51 81.4247 73.2457C83.6997 74.3213 85.8137 75.5557 87.6453 76.8903C92.13 80.1617 93.8333 83.223 93.8333 85.33V93.3333H19.1667V85.33C19.1667 83.223 20.87 80.1617 25.3547 76.8903C27.6087 75.2453 30.299 73.7567 33.183 72.5247C33.2631 74.3841 33.5615 76.2276 34.072 78.0173L34.0907 78.0827C32.6957 78.9651 31.6575 80.3122 31.1594 81.8859C30.6613 83.4596 30.7353 85.1587 31.3684 86.6831C32.0015 88.2075 33.153 89.4592 34.6194 90.217C36.0858 90.9748 37.7729 91.19 39.3826 90.8246C40.9923 90.4592 42.4211 89.5367 43.4166 88.2201C44.4122 86.9034 44.9104 85.2773 44.8233 83.629C44.7362 81.9806 44.0694 80.416 42.9407 79.2116C41.812 78.0072 40.2939 77.2404 38.6547 77.0467C38.3565 76.0704 38.138 75.0716 38.0013 74.06C37.8714 73.1553 37.8176 72.2413 37.8403 71.3277C37.8471 71.1531 37.8588 70.9788 37.8753 70.805C38.1553 70.7187 38.4353 70.6347 38.7153 70.5553L39.6837 72.3893H72.733L73.7737 70.4107V70.4083ZM37.8333 86.3707C39.0887 86.3707 40.1667 85.344 40.1667 84.0023C40.1667 82.663 39.0887 81.634 37.8333 81.634C36.578 81.634 35.5 82.6607 35.5 84.0023C35.5 85.3417 36.578 86.3707 37.8333 86.3707Z" fill="black"/>
</svg>
