<svg width="16" height="16" viewBox="0 0 16 16" fill="none" xmlns="http://www.w3.org/2000/svg">
<g id="Iconly/Light outline/Edit">
<g id="Edit">
<path id="Vector" d="M14.9512 14.0068C15.2543 14.0068 15.5 14.2476 15.5 14.5447C15.5 14.8171 15.2935 15.0422 15.0257 15.0778L14.9512 15.0827H9.22583C8.92274 15.0827 8.67705 14.8418 8.67705 14.5447C8.67705 14.2724 8.8835 14.0473 9.15136 14.0117L9.22583 14.0068H14.9512ZM9.38269 1.67986C10.4217 0.6614 12.1069 0.6614 13.1459 1.67986L14.2245 2.73718C15.2635 3.75564 15.2635 5.40755 14.2245 6.42602L6.11717 14.3732C5.65359 14.8276 5.02506 15.0826 4.36901 15.0826H1.04878C0.740346 15.0826 0.492487 14.8335 0.500174 14.5313L0.583693 11.2472C0.600298 10.6265 0.859392 10.0348 1.30722 9.5958L9.38269 1.67986ZM8.755 3.81518L2.08332 10.3566C1.83438 10.6006 1.69012 10.9301 1.68089 11.2747L1.61121 14.0063L4.36901 14.0067C4.69352 14.0067 5.00559 13.8947 5.2519 13.6925L5.34108 13.6124L12.0458 7.04018L8.755 3.81518ZM12.3698 2.44063C11.7594 1.84232 10.7691 1.84232 10.1588 2.44063L9.53167 3.05435L12.8217 6.27935L13.4484 5.66526C14.0249 5.10019 14.0569 4.20295 13.5445 3.60098L13.4484 3.49794L12.3698 2.44063Z" fill="#FDC300"/>
</g>
</g>
</svg>
