<svg width="17" height="17" viewBox="0 0 17 17" fill="none" xmlns="http://www.w3.org/2000/svg">
<path d="M13.5736 10.5441C15.303 10.5441 16.7089 11.9318 16.7089 13.6389C16.7089 15.345 15.303 16.7337 13.5736 16.7337C11.8442 16.7337 10.4384 15.345 10.4384 13.6389C10.4384 11.9318 11.8442 10.5441 13.5736 10.5441ZM13.5736 11.9957C12.655 11.9957 11.9089 12.7322 11.9089 13.6389C11.9089 14.5447 12.655 15.2821 13.5736 15.2821C14.4922 15.2821 15.2383 14.5447 15.2383 13.6389C15.2383 12.7322 14.4922 11.9957 13.5736 11.9957ZM6.80677 12.9128C7.21265 12.9128 7.54205 13.238 7.54205 13.6386C7.54205 14.0393 7.21265 14.3644 6.80677 14.3644H0.778448C0.372573 14.3644 0.0431667 14.0393 0.0431667 13.6386C0.0431667 13.238 0.372573 12.9128 0.778448 12.9128H6.80677ZM3.17772 0.900391C4.9071 0.900391 6.31296 2.28908 6.31296 3.99519C6.31296 5.7013 4.9071 7.09 3.17772 7.09C1.44932 7.09 0.0424805 5.7013 0.0424805 3.99519C0.0424805 2.28908 1.44932 0.900391 3.17772 0.900391ZM3.17772 2.35199C2.26009 2.35199 1.51304 3.0894 1.51304 3.99519C1.51304 4.90099 2.26009 5.6384 3.17772 5.6384C4.09633 5.6384 4.8424 4.90099 4.8424 3.99519C4.8424 3.0894 4.09633 2.35199 3.17772 2.35199ZM15.9739 3.26959C16.3797 3.26959 16.7091 3.59475 16.7091 3.99539C16.7091 4.39603 16.3797 4.72118 15.9739 4.72118H9.94456C9.53869 4.72118 9.20928 4.39603 9.20928 3.99539C9.20928 3.59475 9.53869 3.26959 9.94456 3.26959H15.9739Z" fill="#2B2B2B"/>
</svg>
