<svg width="18" height="18" viewBox="0 0 18 18" fill="none" xmlns="http://www.w3.org/2000/svg">
<path d="M1.43457 4.138C1.43457 4.73816 1.61534 5.32484 1.95401 5.82386C2.29269 6.32288 2.77406 6.71182 3.33725 6.94149C3.90045 7.17116 4.52018 7.23126 5.11806 7.11417C5.71595 6.99708 6.26514 6.70808 6.69619 6.2837C7.12724 5.85932 7.42079 5.31862 7.53972 4.72999C7.65865 4.14136 7.59761 3.53123 7.36433 2.97675C7.13104 2.42227 6.73599 1.94835 6.22913 1.61492C5.72226 1.28148 5.12636 1.10352 4.51676 1.10352C3.69931 1.10352 2.91534 1.42322 2.33732 1.99229C1.7593 2.56137 1.43457 3.3332 1.43457 4.138ZM5.91775 4.138C5.91775 4.4108 5.83558 4.67747 5.68164 4.9043C5.5277 5.13113 5.30889 5.30791 5.05289 5.41231C4.7969 5.51671 4.5152 5.54402 4.24344 5.4908C3.97167 5.43758 3.72204 5.30621 3.5261 5.11332C3.33017 4.92042 3.19674 4.67465 3.14268 4.40709C3.08862 4.13953 3.11637 3.86219 3.22241 3.61016C3.32844 3.35812 3.50801 3.1427 3.73841 2.99114C3.9688 2.83958 4.23967 2.75869 4.51676 2.75869C4.88832 2.75869 5.24467 2.90401 5.50741 3.16268C5.77015 3.42135 5.91775 3.77218 5.91775 4.138Z" fill="#808191"/>
<path d="M16.5657 13.8626C16.5657 13.2624 16.385 12.6758 16.0463 12.1767C15.7076 11.6777 15.2263 11.2888 14.6631 11.0591C14.0999 10.8294 13.4801 10.7693 12.8823 10.8864C12.2844 11.0035 11.7352 11.2925 11.3041 11.7169C10.8731 12.1413 10.5795 12.682 10.4606 13.2706C10.3417 13.8592 10.4027 14.4694 10.636 15.0239C10.8693 15.5783 11.2643 16.0523 11.7712 16.3857C12.278 16.7191 12.874 16.8971 13.4836 16.8971C14.301 16.8971 15.085 16.5774 15.663 16.0083C16.241 15.4392 16.5657 14.6674 16.5657 13.8626ZM12.0826 13.8626C12.0826 13.5898 12.1647 13.3231 12.3187 13.0963C12.4726 12.8695 12.6914 12.6927 12.9474 12.5883C13.2034 12.4839 13.4851 12.4566 13.7569 12.5098C14.0286 12.563 14.2783 12.6944 14.4742 12.8873C14.6701 13.0802 14.8036 13.326 14.8576 13.5935C14.9117 13.8611 14.8839 14.1384 14.7779 14.3904C14.6719 14.6425 14.4923 14.8579 14.2619 15.0095C14.0315 15.161 13.7606 15.2419 13.4836 15.2419C13.112 15.2419 12.7556 15.0966 12.4929 14.8379C12.2302 14.5793 12.0826 14.2284 12.0826 13.8626Z" fill="#808191"/>
<path d="M2.83561 11.9979V14.9662C2.83561 15.5515 3.07178 16.1128 3.49216 16.5267C3.91254 16.9406 4.48269 17.1731 5.0772 17.1731H8.99998V15.5179H5.0772C4.92857 15.5179 4.78603 15.4598 4.68094 15.3563C4.57584 15.2529 4.5168 15.1125 4.5168 14.9662V11.9979L6.16437 13.62L7.35241 12.4503L4.27023 9.41586C4.11262 9.26088 3.89897 9.17383 3.67621 9.17383C3.45345 9.17383 3.2398 9.26088 3.08219 9.41586L0 12.4503L1.18804 13.62L2.83561 11.9979Z" fill="#808191"/>
<path d="M15.1644 6.00329V3.03502C15.1644 2.44972 14.9282 1.88838 14.5078 1.47451C14.0874 1.06064 13.5173 0.828125 12.9228 0.828125H9V2.4833H12.9228C13.0714 2.4833 13.2139 2.54142 13.319 2.64489C13.4241 2.74836 13.4832 2.88869 13.4832 3.03502V6.00329L11.8356 4.38123L10.6476 5.55088L13.7298 8.58536C13.8874 8.74034 14.101 8.82739 14.3238 8.82739C14.5465 8.82739 14.7602 8.74034 14.9178 8.58536L18 5.55088L16.8119 4.38123L15.1644 6.00329Z" fill="#808191"/>
</svg>
