<svg width="90" height="90" viewBox="0 0 90 90" fill="none" xmlns="http://www.w3.org/2000/svg">
<path d="M63.9844 34.6219V30.9375C63.9844 28.1403 62.8732 25.4577 60.8953 23.4797C58.9173 21.5018 56.2347 20.3906 53.4375 20.3906H47.1094V10.5469H59.0625C59.9949 10.5469 60.8891 10.9173 61.5484 11.5766C62.2077 12.2359 62.5781 13.1301 62.5781 14.0625C62.5781 14.6219 62.8004 15.1585 63.1959 15.5541C63.5915 15.9496 64.1281 16.1719 64.6875 16.1719C65.2469 16.1719 65.7835 15.9496 66.1791 15.5541C66.5746 15.1585 66.7969 14.6219 66.7969 14.0625C66.7969 12.0112 65.982 10.0439 64.5315 8.59347C63.0811 7.14299 61.1138 6.32813 59.0625 6.32812H36.5625C36.0031 6.32812 35.4665 6.55036 35.0709 6.94595C34.6754 7.34153 34.4531 7.87806 34.4531 8.4375C34.4531 8.99694 34.6754 9.53347 35.0709 9.92905C35.4665 10.3246 36.0031 10.5469 36.5625 10.5469H42.8906V20.3906H36.5625C33.7653 20.3906 31.0827 21.5018 29.1047 23.4797C27.1268 25.4577 26.0156 28.1403 26.0156 30.9375V34.6219C22.8797 35.1269 20.0258 36.7314 17.9646 39.1481C15.9034 41.5648 14.7695 44.6362 14.7656 47.8125V75.9375C14.7656 77.2429 15.2842 78.4948 16.2072 79.4178C17.1302 80.3408 18.3821 80.8594 19.6875 80.8594H70.3125C71.6179 80.8594 72.8698 80.3408 73.7928 79.4178C74.7158 78.4948 75.2344 77.2429 75.2344 75.9375V47.8125C75.2305 44.6362 74.0966 41.5648 72.0354 39.1481C69.9742 36.7314 67.1203 35.1269 63.9844 34.6219ZM36.5625 24.6094H53.4375C55.1158 24.6094 56.7254 25.2761 57.9122 26.4628C59.0989 27.6496 59.7656 29.2592 59.7656 30.9375V34.4531H30.2344V30.9375C30.2344 29.2592 30.9011 27.6496 32.0878 26.4628C33.2746 25.2761 34.8842 24.6094 36.5625 24.6094ZM71.0156 75.9375C71.0156 76.124 70.9415 76.3028 70.8097 76.4347C70.6778 76.5665 70.499 76.6406 70.3125 76.6406H19.6875C19.501 76.6406 19.3222 76.5665 19.1903 76.4347C19.0585 76.3028 18.9844 76.124 18.9844 75.9375V47.8125C18.9844 45.3883 19.9474 43.0633 21.6616 41.3491C23.3758 39.6349 25.7008 38.6719 28.125 38.6719H61.875C64.2992 38.6719 66.6242 39.6349 68.3384 41.3491C70.0526 43.0633 71.0156 45.3883 71.0156 47.8125V75.9375Z" fill="black"/>
</svg>
