<svg width="14" height="13" viewBox="0 0 14 13" fill="none" xmlns="http://www.w3.org/2000/svg">
<path d="M5.78368 1.02878C6.04132 0.229891 7.17161 0.229889 7.42925 1.02877L8.34376 3.86441C8.45914 4.22219 8.79251 4.46439 9.16843 4.46357L12.1479 4.45706C12.9873 4.45522 13.3366 5.53019 12.6564 6.02209L10.2421 7.7681C9.93753 7.98839 9.81019 8.38029 9.92714 8.73756L10.854 11.5692C11.1152 12.3669 10.2008 13.0313 9.52274 12.5364L7.11614 10.7799C6.8125 10.5582 6.40043 10.5582 6.09679 10.7799L3.69019 12.5364C3.01218 13.0313 2.09776 12.3669 2.3589 11.5692L3.28579 8.73756C3.40274 8.38029 3.2754 7.98839 2.97079 7.7681L0.556543 6.02209C-0.123626 5.53019 0.225649 4.45522 1.06505 4.45706L4.0445 4.46357C4.42042 4.46439 4.75379 4.22219 4.86917 3.86441L5.78368 1.02878Z" fill="#128324"/>
</svg>